<?xml version="1.0" ?><svg height="48px" version="1.1" viewBox="0 0 48 48" width="48px" xmlns="http://www.w3.org/2000/svg" xmlns:xlink="http://www.w3.org/1999/xlink"><title/><g fill="none" fill-rule="evenodd" id="arrow-login" stroke="none" stroke-width="1"><path d="M10.5839749,19.7226499 L10.5434343,19.7953753 C10.3973068,20.1162383 10.6291771,20.5 11,20.5 L16.5,20.5 L16.5,39 C16.5,39.2761424 16.7238576,39.5 17,39.5 L21,39.5 L21.0898756,39.4919443 C21.3231248,39.4496084 21.5,39.2454599 21.5,39 L21.5,20.5 L27,20.5 C27.3993477,20.5 27.6375434,20.0549273 27.4160251,19.7226499 L19.4160251,7.7226499 C19.2181141,7.42578337 18.7818859,7.42578337 18.5839749,7.7226499 L10.5839749,19.7226499 Z M19,8.902 L26.065,19.5 L21,19.5 L20.9101244,19.5080557 C20.6768752,19.5503916 20.5,19.7545401 20.5,20 L20.5,38.5 L17.5,38.5 L17.5,20 L17.4919443,19.9101244 C17.4496084,19.6768752 17.2454599,19.5 17,19.5 L11.934,19.5 L19,8.902 Z" fill="#000000" fill-rule="nonzero" id="Path" transform="translate(19.000000, 23.500000) scale(-1, 1) rotate(-90.000000) translate(-19.000000, -23.500000) "/><path d="M44.5,5 L22.5,5 C22.2238576,5 22,5.22385763 22,5.5 L22,9.5 L22.0080557,9.58987563 C22.0503916,9.82312484 22.2545401,10 22.5,10 L40,10 L40,37 L22.5,37 C22.2238576,37 22,37.2238576 22,37.5 L22,41.5 C22,41.7761424 22.2238576,42 22.5,42 L44.5,42 C44.7761424,42 45,41.7761424 45,41.5 L45,5.5 C45,5.22385763 44.7761424,5 44.5,5 Z M44,6 L44,41 L23,41 L23,38 L40.5,38 C40.7761424,38 41,37.7761424 41,37.5 L41,9.5 L40.9919443,9.41012437 C40.9496084,9.17687516 40.7454599,9 40.5,9 L23,9 L23,6 L44,6 Z" fill="#000000" fill-rule="nonzero" id="Rectangle"/></g></svg>